<svg
      xmlns="http://www.w3.org/2000/svg"
      width="682.667"
      height="682.667"
      preserveAspectRatio="xMidYMid meet"
      version="1"
      viewBox="0 0 512 512"
    >
      <g fill="#000" stroke="none" transform="matrix(.1 0 0 -.1 0 512)">
        <circle
          cx="2560"
          cy="-2560"
          r="2500"
          fill="#302326"
          fillOpacity="1"
          stroke="none"
          strokeDasharray="none"
          strokeMiterlimit="4"
          strokeOpacity="1"
          strokeWidth="60"
          transform="scale(1 -1)"
        ></circle>
        <g
          fill="#f2f2f2"
          fillOpacity="1"
          strokeWidth="0.879"
          transform="matrix(.88889 0 0 .88889 -.409 29.072)"
        >
          <path
            fill="#db7558"
            d="M4343.428 4794.143c-167.01-36.046-330.503-106.38-479.053-205.726-67.682-44.838-232.934-206.605-1103.139-1076.105L1736.328 2489.836l-464.989 128.359c-442.134 122.204-465.867 128.359-500.148 117.809-29.007-8.792-72.957-46.596-228.539-200.451-105.48-105.5-196.895-203.089-203.927-218.914-23.733-54.509-11.427-108.138 33.402-148.58 10.548-10.55 273.368-158.25 582.774-328.81 309.406-170.559 568.71-316.501 576.62-324.414 7.912-7.912 153.825-267.268 324.35-576.736 169.646-309.468 318.196-572.34 327.865-582.89 42.192-45.717 97.569-57.146 150.309-32.53 15.821 7.913 113.39 99.347 217.99 204.847 153.825 154.734 191.621 197.814 200.411 226.826 9.67 33.409 4.395 58.026-117.785 500.249l-129.212 465.081 1023.15 1024.234c1102.26 1104.239 1075.011 1075.226 1169.064 1262.49 72.077 144.184 129.212 343.756 129.212 450.135-.879 195.176-164.372 356.064-360.388 353.427-26.37 0-81.747-7.913-123.06-15.825z"
          ></path>
          <path
            fill="#ffcf57"
            d="M1258.86 4541.82c-18.46-7.912-117.786-100.225-246.998-230.342-181.952-181.988-218.87-223.31-228.54-254.08-13.184-47.476-.878-94.072 33.403-127.48 14.064-13.188 309.406-172.318 657.488-353.427l632.877-330.568 421.917 422.002c231.176 231.222 419.281 423.76 415.765 426.398-10.548 10.55-1608.561 461.565-1634.052 461.565-11.427-.88-35.16-7.034-51.86-14.067z"
          ></path>
          <path
            fill="#acd8cb"
            d="M3664.67 2526.761l-419.281-419.365 329.623-633.003c181.952-348.151 341.05-643.553 353.356-656.74 13.185-14.067 38.676-29.892 57.135-35.167 65.924-19.342 79.109-10.55 329.623 240.893 200.41 201.33 230.296 235.617 236.45 264.63 4.394 29.013-29.007 156.493-216.233 817.63-122.18 431.672-225.902 797.407-230.297 813.232-4.395 14.946-10.548 28.134-14.064 28.134s-195.137-189.022-426.313-420.244z"
          ></path>
        </g>
        <path
          fill="none"
          stroke="#fefefe"
          strokeLinecap="butt"
          strokeLinejoin="miter"
          strokeOpacity="1"
          strokeWidth="7.5"
          d="M2223.703 4294.967c15.69-13.075-.135.964 9.802-9.802 6.586-7.135 15.829-13.844 21.783-21.783.69-.919.278-2.456 1.09-3.268 1.14-1.14 3.53-2.44 4.356-3.267.827-.827 2.127-3.216 3.268-4.357.256-.257.726 0 1.089 0 .363-.363.804-.662 1.09-1.09l8.712-13.07c2.896-4.342 3.597-12.69 8.714-15.248 3.712-1.855-1.47 2.205-2.179 3.268-1.286 1.93-2.066 5.221-3.267 7.624-1.985 3.969-13.187 25.654-16.338 27.23-1.637.818-8.987-7.082-9.802-7.625-4.903-3.268-28.318-10.759-28.318-18.516 0-2.142 17.414 10.09 18.515 10.892 1.88 1.367 3.453 3.16 5.446 4.357 1.677 1.006 3.666 1.369 5.446 2.178 10.35 4.705 32.122 19.035 35.943 30.497.484 1.454 0 5.336 0 6.535 0 3.538.136 6.444-3.268 8.713-4.49 2.993-12.967-9.7-15.248-11.98-1.196-1.197-8.229-9.76-8.713-10.893-1.478-3.447.46-10.474 0-14.159-.592-4.734-2.66-9.29-3.268-14.159-.238-1.904-.56-17.987-1.09-18.516-1.56-1.561-4.661-.08-6.534 1.09-5.255 3.284-8.804 9.893-13.07 14.159-3.634 3.633-8.297 6.118-11.981 9.802-.725.726-7.064 5.477-6.535 6.535.325.65 1.458-.09 2.178 0 5.095.637 10.161 1.485 15.249 2.178 8.226 1.122 17.854 2.364 26.14 1.09 5.337-.822 10.173-4.318 15.248-5.446 1.772-.394 3.645.225 5.446 0 3.81-.476 6.082-2.179 9.802-2.179"
        ></path>
        <path
          fill="none"
          stroke="#acd8cb"
          strokeLinecap="butt"
          strokeLinejoin="miter"
          strokeOpacity="1"
          strokeWidth="7.5"
          d="M992.012 2671.363c15.69-13.076-.135.964 9.802-9.802 6.586-7.135 15.828-13.844 21.783-21.783.69-.919.278-2.456 1.09-3.268 1.14-1.141 3.53-2.441 4.356-3.268.827-.826 2.127-3.215 3.268-4.356.256-.257.726 0 1.089 0 .363-.363.804-.662 1.09-1.09l8.712-13.07c2.896-4.342 3.597-12.69 8.714-15.248 3.712-1.856-1.47 2.205-2.179 3.268-1.286 1.929-2.066 5.221-3.267 7.624-1.985 3.969-13.187 25.654-16.338 27.23-1.637.818-8.987-7.082-9.802-7.625-4.903-3.269-28.318-10.76-28.318-18.516 0-2.142 17.414 10.09 18.515 10.892 1.88 1.367 3.453 3.16 5.446 4.356 1.677 1.006 3.666 1.37 5.446 2.179 10.35 4.704 32.122 19.034 35.942 30.496.485 1.455 0 5.337 0 6.535 0 3.538.137 6.445-3.267 8.714-4.49 2.993-12.967-9.7-15.248-11.981-1.197-1.196-8.229-9.76-8.714-10.892-1.477-3.447.46-10.474 0-14.159-.591-4.734-2.659-9.29-3.267-14.159-.238-1.905-.56-17.987-1.09-18.516-1.56-1.561-4.662-.08-6.534 1.09-5.255 3.284-8.804 9.893-13.07 14.158-3.634 3.634-8.297 6.119-11.981 9.803-.725.726-7.064 5.476-6.535 6.535.325.65 1.458-.09 2.178 0 5.095.637 10.161 1.485 15.249 2.178 8.226 1.122 17.854 2.364 26.14 1.09 5.337-.822 10.173-4.319 15.248-5.446 1.772-.394 3.645.225 5.446 0 3.81-.477 6.082-2.179 9.802-2.179"
        ></path>
        <path
          fill="none"
          stroke="#fefefe"
          strokeLinecap="butt"
          strokeLinejoin="miter"
          strokeOpacity="1"
          strokeWidth="7.5"
          d="M2775.347 298.769c15.69-13.076-.135.963 9.802-9.803 6.586-7.135 15.829-13.844 21.783-21.783.69-.919.278-2.456 1.09-3.268 1.14-1.14 3.53-2.44 4.356-3.267.827-.827 2.127-3.216 3.268-4.357.256-.257.726 0 1.089 0 .363-.363.804-.662 1.09-1.09l8.713-13.07c2.895-4.342 3.596-12.69 8.713-15.248 3.712-1.855-1.47 2.205-2.179 3.268-1.286 1.93-2.066 5.221-3.267 7.624-1.984 3.969-13.187 25.654-16.337 27.23-1.638.818-8.988-7.081-9.803-7.625-4.903-3.268-28.318-10.759-28.318-18.516 0-2.142 17.414 10.09 18.515 10.892 1.88 1.367 3.453 3.16 5.446 4.357 1.677 1.006 3.666 1.369 5.446 2.178 10.35 4.705 32.122 19.035 35.943 30.497.484 1.454 0 5.336 0 6.535 0 3.538.136 6.444-3.268 8.713-4.49 2.993-12.967-9.7-15.248-11.98-1.196-1.197-8.229-9.76-8.713-10.893-1.478-3.447.46-10.474 0-14.159-.592-4.734-2.66-9.29-3.268-14.159-.238-1.904-.56-17.987-1.09-18.516-1.56-1.561-4.661-.08-6.534 1.09-5.255 3.284-8.804 9.893-13.07 14.159-3.634 3.633-8.297 6.118-11.981 9.802-.725.726-7.064 5.477-6.535 6.535.325.65 1.458-.09 2.178 0 5.095.637 10.161 1.485 15.249 2.178 8.226 1.122 17.854 2.364 26.14 1.09 5.337-.821 10.173-4.318 15.248-5.446 1.772-.394 3.645.225 5.446 0 3.81-.476 6.082-2.179 9.802-2.179"
        ></path>
        <path
          fill="none"
          stroke="#ffcf57"
          strokeLinecap="butt"
          strokeLinejoin="miter"
          strokeOpacity="1"
          strokeWidth="7.5"
          d="M4238.991 1956.658c15.691-13.076-.135.964 9.803-9.802 6.586-7.135 15.828-13.844 21.783-21.784.69-.918.278-2.455 1.09-3.267 1.14-1.141 3.53-2.441 4.356-3.268.826-.826 2.126-3.215 3.267-4.356.257-.257.726 0 1.09 0 .363-.363.804-.662 1.089-1.09l8.713-13.07c2.895-4.342 3.597-12.69 8.713-15.248 3.712-1.856-1.47 2.205-2.178 3.268-1.286 1.929-2.066 5.22-3.267 7.624-1.985 3.969-13.188 25.654-16.338 27.23-1.638.818-8.987-7.082-9.802-7.625-4.903-3.269-28.319-10.76-28.319-18.516 0-2.142 17.414 10.09 18.516 10.892 1.88 1.367 3.453 3.16 5.446 4.356 1.676 1.006 3.666 1.37 5.446 2.179 10.35 4.704 32.122 19.034 35.942 30.496.485 1.455 0 5.337 0 6.535 0 3.538.137 6.445-3.267 8.714-4.49 2.993-12.967-9.7-15.249-11.981-1.196-1.196-8.228-9.76-8.713-10.892-1.477-3.447.46-10.475 0-14.159-.592-4.734-2.659-9.29-3.267-14.16-.238-1.904-.56-17.986-1.09-18.515-1.561-1.561-4.662-.081-6.535 1.09-5.255 3.284-8.804 9.893-13.07 14.158-3.633 3.634-8.296 6.119-11.98 9.803-.726.726-7.065 5.476-6.535 6.535.324.65 1.457-.09 2.178 0 5.095.637 10.16 1.485 15.248 2.178 8.227 1.122 17.855 2.364 26.14 1.09 5.338-.822 10.173-4.319 15.249-5.446 1.772-.394 3.644.225 5.445 0 3.81-.477 6.082-2.179 9.803-2.179"
        ></path>
        <path
          fill="none"
          stroke="#db7558"
          strokeLinecap="butt"
          strokeLinejoin="miter"
          strokeOpacity="1"
          strokeWidth="7.5"
          d="M4616.504 3516.074c15.69-13.076-.135.963 9.802-9.803 6.586-7.134 15.829-13.843 21.784-21.783.689-.918.277-2.455 1.089-3.267 1.14-1.141 3.53-2.441 4.356-3.268.827-.826 2.127-3.215 3.268-4.357.257-.256.726 0 1.09 0 .362-.362.804-.662 1.088-1.089l8.714-13.07c2.895-4.343 3.597-12.69 8.713-15.248 3.712-1.856-1.47 2.205-2.178 3.268-1.286 1.929-2.066 5.22-3.268 7.624-1.984 3.968-13.187 25.654-16.337 27.229-1.638.819-8.988-7.081-9.803-7.624-4.903-3.269-28.318-10.76-28.318-18.516 0-2.142 17.414 10.09 18.516 10.891 1.88 1.368 3.452 3.161 5.446 4.357 1.676 1.006 3.666 1.37 5.445 2.178 10.35 4.705 32.122 19.035 35.943 30.497.484 1.454 0 5.336 0 6.535 0 3.538.136 6.444-3.268 8.713-4.49 2.993-12.966-9.699-15.248-11.98-1.196-1.197-8.228-9.76-8.713-10.892-1.478-3.447.46-10.475 0-14.16-.592-4.733-2.66-9.289-3.268-14.158-.237-1.905-.56-17.987-1.089-18.516-1.561-1.562-4.662-.081-6.535 1.089-5.255 3.284-8.804 9.893-13.07 14.16-3.633 3.633-8.297 6.118-11.98 9.802-.726.726-7.065 5.476-6.536 6.535.325.65 1.458-.09 2.179 0 5.094.636 10.16 1.484 15.248 2.178 8.227 1.122 17.854 2.364 26.14 1.09 5.338-.822 10.173-4.319 15.248-5.447 1.772-.393 3.645.225 5.446 0 3.81-.476 6.082-2.178 9.803-2.178"
        ></path>
      </g>
    </svg>